# xmcd
# Track frame offsets:
# 150
# 21477
# 35222
# 45850
# 58397
# 71590
# 85242
# 96862
# 106312
# 116242
# 123957
# 136125
# 151742
# 162582
# 169927
# 184950
# 195560
# 204855
# 214912
#
# Disc length: 3046 seconds
# Revision: 0
# Processed by: cddbd v1.4PL0 Copyright (c) Steve Scherf et al.
# Submitted via: VisiTrax 2.9.7.197 - For more info visit www.synapsa.com
#
DISCID=140be413
DTITLE=Mobile Strugglers, The - Louis James' String Band - The String Band
DTITLE=s - The Mobile Strugglers - Louis James' String Band
DYEAR=1996
DGENRE=Blues - String Bands
TTITLE0=Mobile Strugglers, The - Cornfed Indiana Gal
TTITLE1=Mobile Strugglers, The - Memphis Blues
TTITLE2=Mobile Strugglers, The - Indiana Rag
TTITLE3=Mobile Strugglers, The - Fattening Frogs For Snakes
TTITLE4=Mobile Strugglers, The - Don't Bring Lulu
TTITLE5=Mobile Strugglers, The - Original Blues
TTITLE6=Mobile Strugglers, The - Billboard March
TTITLE7=James' String Band, Louis - Sweet Adeline: (Schottische)
TTITLE8=James' String Band, Louis - Next To Your Mother, Who Do You Love?
TTITLE9=James' String Band, Louis - Goofus
TTITLE10=James' String Band, Louis - Rose Room
TTITLE11=James' String Band, Louis - Down In Honky Tonky Town
TTITLE12=James' String Band, Louis - After The Ball Is Over: (Waltz)
TTITLE13=James' String Band, Louis - Exactly Like You
TTITLE14=James' String Band, Louis - Memphis Blues
TTITLE15=James' String Band, Louis - Please Don't Talk About Me When I'm Gone
TTITLE16=James' String Band, Louis - Untitled Quadrille Tune
TTITLE17=James' String Band, Louis - Just A Little While To Stay Here
TTITLE18=James' String Band, Louis - King Bolden's Song
EXTD=American Music, AMCD-14
EXTT0=
EXTT1=
EXTT2=
EXTT3=
EXTT4=
EXTT5=
EXTT6=
EXTT7=
EXTT8=
EXTT9=
EXTT10=
EXTT11=
EXTT12=
EXTT13=
EXTT14=
EXTT15=
EXTT16=
EXTT17=
EXTT18=
PLAYORDER=
